<?xml version="1.0" encoding="UTF-8" standalone="no"?>
<!DOCTYPE svg PUBLIC "-//W3C//DTD SVG 1.1//EN" "http://www.w3.org/Graphics/SVG/1.1/DTD/svg11.dtd">
<svg width="100%" height="100%" viewBox="0 0 1024 1024" version="1.1" xmlns="http://www.w3.org/2000/svg">
    <defs>
        <linearGradient id="background-gradient" x1="0" y1="0" x2="1" y2="0" gradientUnits="userSpaceOnUse" gradientTransform="matrix(-1002.95,868.33,-868.33,-1002.95,1006.42,83.9521)">
            <stop offset="0" style="stop-color: #3642b4"/>
            <stop offset="1" style="stop-color: #1c1644"/>
        </linearGradient>
        <filter id="shadow">
            <feDropShadow dx="10" dy="15" stdDeviation="10" flood-opacity="0.5"/>
        </filter>
    </defs>
    <clipPath id="squircle">
        <path d="M6821,495.533v-4.281c0-1.2-.04-2.4-0.04-3.642a57.7,57.7,0,0,0-.68-7.882,26.144,26.144,0,0,0-2.48-7.483,25.115,25.115,0,0,0-11.04-11.044,26.118,26.118,0,0,0-7.49-2.481,47.28,47.28,0,0,0-7.88-.68c-1.2-.04-2.4-0.04-3.64-0.04h-53.5c-1.2,0-2.4.04-3.64,0.04a57.813,57.813,0,0,0-7.88.68,26.323,26.323,0,0,0-7.49,2.481,25.115,25.115,0,0,0-11.04,11.044,26.144,26.144,0,0,0-2.48,7.483,47.313,47.313,0,0,0-.68,7.882c-0.04,1.2-.04,2.4-0.04,3.642v53.5c0,1.2.04,2.4,0.04,3.641a57.7,57.7,0,0,0,.68,7.883,26.137,26.137,0,0,0,2.48,7.482,25.115,25.115,0,0,0,11.04,11.044,26.261,26.261,0,0,0,7.49,2.481,47.28,47.28,0,0,0,7.88.68c1.2,0.04,2.4.04,3.64,0.04h53.5c1.2,0,2.4-.04,3.64-0.04a57.654,57.654,0,0,0,7.88-.68,26.057,26.057,0,0,0,7.49-2.481,25.115,25.115,0,0,0,11.04-11.044,26.137,26.137,0,0,0,2.48-7.482,47.316,47.316,0,0,0,.68-7.883c0.04-1.2.04-2.4,0.04-3.641V495.533h0Z" transform="scale(8.53333333333) translate(-6701 -458)"/>
    </clipPath>
    <g clip-path="url(#squircle)">
        <rect id="background" x="0" y="0" width="1024" height="1024" style="fill:url(#background-gradient);"/>
        <path id="logo" style="fill: white; transform: scale(1); transform-origin: 50% 50%; filter: url(#shadow)" d="M840.65,433.59C808.48,263.72 652.22,143.26 484.75,159.26C308.85,176.12 178.04,319.36 177.83,495.58C177.72,611.03 177.83,726.53 177.83,841.98L177.83,870C180.76,871.12 183.7,872.24 186.63,873.41C202.58,857.35 380.89,678.46 381.58,677.82C393.42,666.4 407.83,660.96 427.73,661.71C467.42,663.2 508.13,663.84 547.02,656.96C632.59,641.92 692.77,555.86 680.5,472.74C666.58,378.31 590.87,317.6 494.79,323.89C412.31,329.28 343.49,404.82 342.69,490.93C342.58,501.6 342.64,512.27 342.64,522.94C342.64,610.91 336.93,622.28 265.02,676.75C265.02,597.31 255.68,517.29 267.15,440.35C285.45,317.7 399.41,234.47 521.79,240.34C647.22,246.42 750.24,338.72 762.93,461.96C773.28,562.74 736.25,645.81 650.89,702.3C584.2,746.42 514.79,756.98 444.48,735.54L386.17,800.73C434.51,820.47 486.1,828.1 541.26,823.72C734,808.54 876.61,623.68 840.65,433.59ZM511.32,412.36C554.59,412.31 592.15,448.53 593,491.05C593.85,533.09 556.46,571.66 513.88,572.62C469.76,573.58 431.51,536.34 431.35,492.22C431.19,449.81 468.69,412.36 511.32,412.36Z"/>
    </g>
</svg>
